<svg xmlns="http://www.w3.org/2000/svg" width="846.421" height="852.815" viewBox="0 0 846.421 852.815">
  <g id="Group_147" data-name="Group 147" transform="translate(-2334.227 2220.269) rotate(-42)" opacity="0.1">
    <path id="Path_2388" data-name="Path 2388" d="M2971.3,351.368v321.24l278.2,160.62,278.2-160.62V351.368l-278.2-160.62Z" transform="translate(0 0)" fill="none" stroke="#c360b5" stroke-miterlimit="10" stroke-width="2"/>
    <path id="Path_2389" data-name="Path 2389" d="M3209.959,722.526l221.876-128.1v-256.2l-221.876-128.1-221.877,128.1v256.2Z" transform="translate(39.545 45.663)" fill="none" stroke="#c360b5" stroke-miterlimit="10" stroke-width="2"/>
    <path id="Path_2390" data-name="Path 2390" d="M3170.414,611.824l165.551-95.581V325.08L3170.414,229.5,3004.86,325.08V516.243Z" transform="translate(79.09 91.326)" fill="none" stroke="#c360b5" stroke-miterlimit="10" stroke-width="2"/>
    <path id="Path_2391" data-name="Path 2391" d="M3130.868,501.123l109.227-63.062V311.936l-109.227-63.063L3021.64,311.936V438.061Z" transform="translate(118.636 136.989)" fill="none" stroke="#c360b5" stroke-miterlimit="10" stroke-width="2"/>
    <path id="Path_2392" data-name="Path 2392" d="M3038.419,298.792v61.086l52.9,30.544,52.9-30.544V298.792l-52.9-30.543Z" transform="translate(158.181 182.653)" fill="none" stroke="#c360b5" stroke-miterlimit="10" stroke-width="2"/>
  </g>
</svg>
