<svg xmlns="http://www.w3.org/2000/svg" width="1498.833" height="1298.028" viewBox="0 0 1498.833 1298.028">
  <g id="Group_171" data-name="Group 171" transform="translate(-3143.896 255.819)" opacity="0.5">
    <path id="Path_2393" data-name="Path 2393" d="M4267.445-254.819H3519.18L3145.051,393.2l374.129,648.014h748.265L4641.575,393.2Z" transform="translate(0 0)" fill="none" stroke="#47b3ab" stroke-miterlimit="10" stroke-width="2"/>
    <path id="Path_2394" data-name="Path 2394" d="M3163.156,277.677l298.385,516.817h596.77l298.383-516.817L4058.311-239.14h-596.77Z" transform="translate(133.388 115.518)" fill="none" stroke="#47b3ab" stroke-miterlimit="10" stroke-width="2"/>
    <path id="Path_2395" data-name="Path 2395" d="M3181.26,162.16,3403.9,547.78h445.275l222.638-385.62L3849.173-223.46H3403.9Z" transform="translate(266.779 231.036)" fill="none" stroke="#47b3ab" stroke-miterlimit="10" stroke-width="2"/>
    <path id="Path_2396" data-name="Path 2396" d="M3199.366,46.641l146.891,254.422h293.781l146.89-254.422-146.89-254.422H3346.257Z" transform="translate(400.165 346.554)" fill="none" stroke="#47b3ab" stroke-miterlimit="10" stroke-width="2"/>
    <path id="Path_2397" data-name="Path 2397" d="M3430.9-192.1H3288.616L3217.47-68.877l71.146,123.225H3430.9l71.146-123.225Z" transform="translate(533.554 462.072)" fill="none" stroke="#47b3ab" stroke-miterlimit="10" stroke-width="2"/>
  </g>
</svg>
