<svg xmlns="http://www.w3.org/2000/svg" width="928.179" height="803.827" viewBox="0 0 928.179 803.827">
  <g id="Group_331" data-name="Group 331" transform="translate(-3143.896 255.819)" opacity="0.5">
    <path id="Path_2393" data-name="Path 2393" d="M3839.454-254.819H3376.517L3145.051,146.095l231.466,400.914h462.937l231.467-400.914Z" transform="translate(0)" fill="none" stroke="#47b3ab" stroke-miterlimit="10" stroke-width="2"/>
    <path id="Path_2394" data-name="Path 2394" d="M3163.155,80.6,3347.76,400.35h369.21L3901.573,80.6,3716.97-239.14H3347.76Z" transform="translate(75.621 65.49)" fill="none" stroke="#47b3ab" stroke-miterlimit="10" stroke-width="2"/>
    <path id="Path_2395" data-name="Path 2395" d="M3181.26,15.115,3319,253.691h275.483L3732.226,15.115,3594.485-223.46H3319Z" transform="translate(151.243 130.98)" fill="none" stroke="#47b3ab" stroke-miterlimit="10" stroke-width="2"/>
    <path id="Path_2396" data-name="Path 2396" d="M3199.366-50.375l90.878,157.406H3472l90.878-157.406L3472-207.781H3290.244Z" transform="translate(226.863 196.47)" fill="none" stroke="#47b3ab" stroke-miterlimit="10" stroke-width="2"/>
    <path id="Path_2397" data-name="Path 2397" d="M3349.516-192.1h-88.03l-44.016,76.237,44.016,76.237h88.03l44.017-76.237Z" transform="translate(302.484 261.96)" fill="none" stroke="#47b3ab" stroke-miterlimit="10" stroke-width="2"/>
  </g>
</svg>
