<svg xmlns="http://www.w3.org/2000/svg" width="45.058" height="45.059" viewBox="0 0 45.058 45.059">
  <g id="Group_276" data-name="Group 276" transform="translate(0)">
    <path id="Path_2648" data-name="Path 2648" d="M477.421,248.689a22.529,22.529,0,1,1,22.529-22.529A22.555,22.555,0,0,1,477.421,248.689Zm0-42.918a20.389,20.389,0,1,0,20.388,20.389A20.412,20.412,0,0,0,477.421,205.771Zm7.6,11.248a1.667,1.667,0,1,0,1.668,1.668A1.667,1.667,0,0,0,485.017,217.019Zm-7.412,2.138a7,7,0,1,0,7,7A7.011,7.011,0,0,0,477.605,219.157Zm0,11.49a4.486,4.486,0,1,1,4.486-4.486A4.491,4.491,0,0,1,477.605,230.647Zm14.131-10.306a8.542,8.542,0,0,0-8.542-8.542H471.92a8.542,8.542,0,0,0-8.542,8.542v11.274a8.542,8.542,0,0,0,8.542,8.542h11.274a8.542,8.542,0,0,0,8.542-8.542Zm-2.675,11.274a5.866,5.866,0,0,1-5.867,5.866H471.92a5.866,5.866,0,0,1-5.866-5.866V220.34a5.866,5.866,0,0,1,5.866-5.866h11.274a5.866,5.866,0,0,1,5.867,5.866Z" transform="translate(-454.891 -203.631)" fill="#fff"/>
  </g>
</svg>
