<svg id="Group_271" data-name="Group 271" xmlns="http://www.w3.org/2000/svg" width="45.354" height="45.354" viewBox="0 0 45.354 45.354">
  <g id="Group_268" data-name="Group 268" transform="translate(0)">
    <path id="Path_2644" data-name="Path 2644" d="M313.949,183.783a22.677,22.677,0,1,1,22.677-22.677A22.7,22.7,0,0,1,313.949,183.783Zm0-42.919a20.241,20.241,0,1,0,20.241,20.241A20.264,20.264,0,0,0,313.949,140.864Z" transform="translate(-291.272 -138.429)" fill="#0e1032"/>
  </g>
  <g id="Group_270" data-name="Group 270" transform="translate(7.869 8.692)">
    <g id="Group_269" data-name="Group 269">
      <path id="Path_2645" data-name="Path 2645" d="M300.742,170.71v-.465a1.231,1.231,0,0,1,.7-.47,7.94,7.94,0,0,0,5.306-4.083c1.035-1.718.869-2.111-1.039-2.787-.109-.039-.221-.07-.328-.114a4.1,4.1,0,0,1-1.162-.646c-.855-.743-.349-1.814.659-2.056.736-.177,1.378.3,2.093.386.478.059.669-.1.61-.611a24.432,24.432,0,0,1-.086-3.945,6.678,6.678,0,0,1,3.442-5.66,8.691,8.691,0,0,1,9.318-.028,6.645,6.645,0,0,1,3.427,5.115,22.77,22.77,0,0,1-.012,4.464c-.051.646.081.765.72.616.794-.186,1.458-.595,2.282-.233a1.256,1.256,0,0,1,.814,1.093,1.211,1.211,0,0,1-.45.851,4.634,4.634,0,0,1-1.34.7c-.358.145-.731.258-1.08.422-.721.337-.928.784-.591,1.5a8.278,8.278,0,0,0,5.66,4.994,1.33,1.33,0,0,1,.816.493v.465a2.154,2.154,0,0,1-1.268,1.042,5.856,5.856,0,0,1-1.671.473,1.273,1.273,0,0,0-1.351,1.241c-.117.8-.356.91-1.169.844-.193-.016-.384-.051-.574-.085a5.171,5.171,0,0,0-4.393.935,9.279,9.279,0,0,1-.815.558,6.091,6.091,0,0,1-6.841.254c-.635-.37-1.236-.8-1.852-1.2a4.084,4.084,0,0,0-1.669-.612,10.706,10.706,0,0,0-2.829.174c-.483.053-.949-.085-.976-.584-.066-1.2-.8-1.5-1.815-1.609a5.163,5.163,0,0,1-1.381-.429A2.029,2.029,0,0,1,300.742,170.71Z" transform="translate(-300.742 -148.89)" fill="#0e1032"/>
    </g>
  </g>
</svg>
