<svg id="Group_267" data-name="Group 267" xmlns="http://www.w3.org/2000/svg" width="45.355" height="45.354" viewBox="0 0 45.355 45.354">
  <g id="Group_265" data-name="Group 265" transform="translate(0)">
    <path id="Path_2642" data-name="Path 2642" d="M395.486,248.3a22.677,22.677,0,1,1,22.677-22.677A22.7,22.7,0,0,1,395.486,248.3Zm0-42.918a20.241,20.241,0,1,0,20.241,20.241A20.264,20.264,0,0,0,395.486,205.383Z" transform="translate(-372.808 -202.947)" fill="#0e1032"/>
  </g>
  <g id="Group_266" data-name="Group 266" transform="translate(16.339 9.085)">
    <path id="Path_2643" data-name="Path 2643" d="M395.255,227.581v13.143a.342.342,0,0,0,.342.342h4.881a.342.342,0,0,0,.342-.342V227.366h3.539a.342.342,0,0,0,.341-.313l.341-4.025a.343.343,0,0,0-.341-.371H400.82V219.8a1.212,1.212,0,0,1,1.212-1.212h2.727a.342.342,0,0,0,.342-.342v-4.024a.342.342,0,0,0-.342-.342h-4.608a4.9,4.9,0,0,0-4.9,4.9v3.879h-2.44a.342.342,0,0,0-.342.342v4.025a.342.342,0,0,0,.342.342h2.44Z" transform="translate(-392.472 -213.881)" fill="#0e1032" fill-rule="evenodd"/>
  </g>
</svg>
