<svg id="Group_264" data-name="Group 264" xmlns="http://www.w3.org/2000/svg" width="45.354" height="45.354" viewBox="0 0 45.354 45.354">
  <g id="Group_257" data-name="Group 257" transform="translate(0)">
    <path id="Path_2636" data-name="Path 2636" d="M313.949,248.3a22.677,22.677,0,1,1,22.677-22.677A22.7,22.7,0,0,1,313.949,248.3Zm0-42.918a20.241,20.241,0,1,0,20.241,20.241A20.264,20.264,0,0,0,313.949,205.383Z" transform="translate(-291.272 -202.947)" fill="#fff"/>
  </g>
  <g id="Group_263" data-name="Group 263" transform="translate(9.378 11.792)">
    <g id="Group_258" data-name="Group 258">
      <path id="Path_2637" data-name="Path 2637" d="M328.891,219.748a10.833,10.833,0,0,1-2.67.763c.43-.072,1.064-.851,1.318-1.166a4.92,4.92,0,0,0,.889-1.619c.023-.047.041-.1-.006-.14a.15.15,0,0,0-.141.012,13.622,13.622,0,0,1-3.171,1.214.211.211,0,0,1-.219-.058,2.565,2.565,0,0,0-.278-.283,5.612,5.612,0,0,0-1.536-.941,5.349,5.349,0,0,0-2.356-.38,5.632,5.632,0,0,0-2.235.631,5.759,5.759,0,0,0-1.8,1.473,5.544,5.544,0,0,0-1.078,2.157,5.837,5.837,0,0,0-.057,2.277c.017.127.006.145-.11.127-4.356-.648-7.967-2.207-10.9-5.547-.127-.145-.2-.145-.3.012a5.527,5.527,0,0,0,.942,6.529c.214.2.433.4.67.589a5.536,5.536,0,0,1-2.1-.589c-.127-.081-.191-.034-.2.11a3.293,3.293,0,0,0,.034.625A5.588,5.588,0,0,0,307.025,230a3.235,3.235,0,0,0,.7.214,6.225,6.225,0,0,1-2.062.064c-.15-.029-.208.047-.15.191a5.8,5.8,0,0,0,4.334,3.628c.2.034.393.034.59.081-.012.017-.024.017-.035.035-.487.742-2.174,1.294-2.96,1.569a10.6,10.6,0,0,1-4.5.575c-.242-.036-.292-.033-.358,0s-.008.1.07.161c.307.2.618.382.936.555a14.87,14.87,0,0,0,3,1.2c5.4,1.491,11.482.4,15.537-3.633,3.183-3.164,4.3-7.526,4.3-11.893,0-.171.2-.266.322-.356a10.47,10.47,0,0,0,2.1-2.2.641.641,0,0,0,.13-.421v-.023C328.99,219.678,329,219.7,328.891,219.748Z" transform="translate(-302.559 -217.139)" fill="#fff"/>
    </g>
    <g id="Group_259" data-name="Group 259" transform="translate(7.849 21.677)">
      <path id="Path_2638" data-name="Path 2638" d="M312.006,243.228Z" transform="translate(-312.006 -243.228)" fill="#fff" fill-rule="evenodd"/>
    </g>
    <g id="Group_260" data-name="Group 260" transform="translate(7.648 21.677)">
      <path id="Path_2639" data-name="Path 2639" d="M311.965,243.228c-.035,0-.436,0,0,0Z" transform="translate(-311.763 -243.228)" fill="#fff" fill-rule="evenodd"/>
    </g>
    <g id="Group_261" data-name="Group 261" transform="translate(8.74 21.681)">
      <path id="Path_2640" data-name="Path 2640" d="M313.077,243.252c0-.044.468,0,0,0C313.077,243.229,313.134,243.252,313.077,243.252Z" transform="translate(-313.077 -243.232)" fill="#fff" fill-rule="evenodd"/>
    </g>
    <g id="Group_262" data-name="Group 262" transform="translate(17.979 0.032)">
      <path id="Path_2641" data-name="Path 2641" d="M324.306,217.177a.093.093,0,0,1-.109,0Z" transform="translate(-324.197 -217.177)" fill="#fff" fill-rule="evenodd"/>
    </g>
  </g>
</svg>
