<svg id="Group_275" data-name="Group 275" xmlns="http://www.w3.org/2000/svg" width="45.354" height="45.355" viewBox="0 0 45.354 45.355">
  <g id="Group_272" data-name="Group 272">
    <path id="Path_2646" data-name="Path 2646" d="M477.391,184.073A22.677,22.677,0,1,1,500.067,161.4,22.7,22.7,0,0,1,477.391,184.073Zm0-42.919a20.241,20.241,0,1,0,20.24,20.241A20.264,20.264,0,0,0,477.391,141.154Z" transform="translate(-454.713 -138.718)" fill="#fff"/>
  </g>
  <g id="Group_274" data-name="Group 274" transform="translate(9.504 13.415)">
    <g id="Group_273" data-name="Group 273">
      <path id="Path_2647" data-name="Path 2647" d="M492.9,160.687a5.824,5.824,0,0,0-5.824-5.824h-15.1a5.823,5.823,0,0,0-5.823,5.824v7.079a5.823,5.823,0,0,0,5.823,5.824h15.1a5.824,5.824,0,0,0,5.824-5.824Zm-9.529,3.9-6.024,3.3c-.262.142-.5-.047-.5-.346v-6.782c0-.3.243-.49.505-.341l6.065,3.478A.4.4,0,0,1,483.373,164.583Z" transform="translate(-466.151 -154.863)" fill="#fff"/>
    </g>
  </g>
</svg>
