<svg xmlns="http://www.w3.org/2000/svg" width="282" height="186.343" viewBox="0 0 282 186.343">
  <g id="Group_212" data-name="Group 212" transform="translate(-385.35 -241.843)">
    <g id="Group_211" data-name="Group 211" transform="translate(442.081 275.844)">
      <rect id="Rectangle_205" data-name="Rectangle 205" width="98.294" height="36.587" transform="translate(126.975 115.756)" fill="#47b8b0"/>
      <g id="Group_209" data-name="Group 209">
        <path id="Path_2600" data-name="Path 2600" d="M461.047,335.852c-2.23-3.185-7.964-6.371-13.89-6.371h-10.83v43.962h10.83v-33.13c4.142.19,8.92,3.122,8.92,9.238v23.892h9.939V349.551c0-6.116,4.779-9.048,8.92-9.238v33.13h10.832V329.481H474.936C469.011,329.481,463.277,332.667,461.047,335.852Z" transform="translate(-436.327 -265.953)" fill="#fff"/>
        <path id="Path_2601" data-name="Path 2601" d="M484.8,329.481v43.962H495.63v-6.371h9.556v6.371h10.832V359.808C516.017,338.847,502.956,329.481,484.8,329.481Zm20.261,27.077H495.63v-14.4C501.491,344.454,504.421,349.487,505.059,356.558Z" transform="translate(-430.856 -265.953)" fill="#fff"/>
        <path id="Path_2602" data-name="Path 2602" d="M539.233,362.93a11.536,11.536,0,0,1-11.85-11.4,11.692,11.692,0,0,1,7.263-10.768c1.338-.51,2.867-.763,8.983-.763h.956V329.481h-.956c-6.371,0-8.091.191-9.429.446a21.661,21.661,0,0,0-17.648,21.534c0,12.169,9.557,21.981,22.681,21.981h10.832v-22.3H539.233Z" transform="translate(-427.272 -265.953)" fill="#fff"/>
        <path id="Path_2603" data-name="Path 2603" d="M554.247,359.361c0,2.74-1.274,3.569-3.823,3.569v10.512c9.557,0,14.654-5.8,14.654-14.081v-29.88H554.247Z" transform="translate(-423.449 -265.953)" fill="#fff"/>
        <rect id="Rectangle_206" data-name="Rectangle 206" width="10.831" height="43.961" transform="translate(146.321 63.529)" fill="#fff"/>
        <path id="Path_2604" data-name="Path 2604" d="M601.826,329.481l-9.238,17.839V329.481H581.757v43.962h10.831V357.514c6.371,0,9.238,4.142,9.238,10.512v5.416h10.83v-5.416c0-7.836-2.8-15.163-9.939-18.03l10.577-20.516Z" transform="translate(-419.913 -265.953)" fill="#fff"/>
        <path id="Path_2605" data-name="Path 2605" d="M641.455,362.93H624.571v-6.371h11.468V346.365H624.571v-6.371h16.884V329.481H613.74v43.961h27.715Z" transform="translate(-416.303 -265.953)" fill="#fff"/>
        <path id="Path_2606" data-name="Path 2606" d="M446.943,309.624c6.244,0,9.055,4.059,9.055,10.3v5.308h10.616v-5.308c0-7.681-2.748-14.862-9.742-17.672l10.366-20.107H456l-9.055,17.484V282.147H436.327v43.088h10.616Z" transform="translate(-436.327 -271.295)" fill="#fff"/>
        <path id="Path_2607" data-name="Path 2607" d="M494.889,314.931H478.34v-6.245h11.24V298.7H478.34v-6.244h16.548v-10.3H467.724v43.088h27.164Z" transform="translate(-432.783 -271.295)" fill="#fff"/>
        <path id="Path_2608" data-name="Path 2608" d="M527.227,325.235V282.147H516.611v7.431c-4.871-4.683-11.677-7.431-20.3-7.431v43.088h10.616V295.26c6.619,2.186,9.68,7.994,9.68,16.612v13.363Z" transform="translate(-429.556 -271.295)" fill="#fff"/>
        <path id="Path_2609" data-name="Path 2609" d="M560.616,303.378H550v11.553a11.306,11.306,0,0,1-11.615-11.178A11.456,11.456,0,0,1,545.5,293.2c1.311-.5,2.81-.749,8.8-.749h.936v-10.3h-.936c-6.245,0-7.931.187-9.242.437a21.231,21.231,0,0,0-17.3,21.107c0,11.927,9.367,21.544,22.232,21.544h10.616Z" transform="translate(-426.006 -271.295)" fill="#fff"/>
        <path id="Path_2610" data-name="Path 2610" d="M571.915,318.99h9.367v6.245H591.9V311.872c0-20.546-12.8-29.725-30.6-29.725v43.088h10.616Zm0-24.416c5.746,2.248,8.618,7.181,9.242,14.113h-9.242Z" transform="translate(-422.222 -271.295)" fill="#fff"/>
        <rect id="Rectangle_207" data-name="Rectangle 207" width="7.48" height="7.948" transform="translate(34.941)" fill="#fff"/>
        <rect id="Rectangle_208" data-name="Rectangle 208" width="7.48" height="7.948" transform="translate(45.446)" fill="#fff"/>
      </g>
      <g id="Group_210" data-name="Group 210" transform="translate(140.911 123.11)">
        <path id="Path_2611" data-name="Path 2611" d="M571.077,383.02a7.6,7.6,0,0,1,5.47,1.951,6.564,6.564,0,0,1,2.011,4.82,6.751,6.751,0,0,1-1.686,4.937,18.321,18.321,0,0,1-6.209,3.519,18.168,18.168,0,0,0-2.04.768c-.473.237-.68.5-.68.858v.236h8.988c.917,0,1.213.3,1.213,1.212v1.922c0,.917-.3,1.212-1.213,1.212h-12.8c-.916,0-1.182-.295-1.182-1.212V401a5.385,5.385,0,0,1,1.862-4.4,12.175,12.175,0,0,1,3.814-2.188,16.413,16.413,0,0,0,3.667-1.8,3.346,3.346,0,0,0,1.3-2.6,2.532,2.532,0,0,0-2.69-2.572,3.273,3.273,0,0,0-3.223,2.159c-.443.916-.709,1.034-1.537.768l-2.277-.828a1.037,1.037,0,0,1-.739-1.537C564.454,384.676,567.086,383.02,571.077,383.02Z" transform="translate(-562.947 -383.02)" fill="#fff"/>
        <path id="Path_2612" data-name="Path 2612" d="M580.268,390.382c0-4.524,3.016-7.362,8.1-7.362,5.056,0,8.042,2.838,8.042,7.362v7.1c0,4.612-2.957,7.421-8.042,7.421s-8.1-2.838-8.1-7.421Zm11.352-.059c0-1.893-1.212-2.9-3.252-2.9-2.129,0-3.311,1-3.311,2.9v7.243c0,1.893,1.182,2.928,3.311,2.928,2.04,0,3.252-1.035,3.252-2.928Z" transform="translate(-560.992 -383.02)" fill="#fff"/>
        <path id="Path_2613" data-name="Path 2613" d="M607.218,383.418c.916,0,1.212.3,1.212,1.213V403.2c0,.917-.3,1.212-1.212,1.212h-2.395c-.917,0-1.212-.295-1.212-1.212V389.332l-2.868,1.626a1.149,1.149,0,0,1-1.833-.473l-1.035-1.863c-.385-.8-.237-1.153.591-1.626l5.352-3.1a3.19,3.19,0,0,1,1.714-.473Z" transform="translate(-559.028 -382.975)" fill="#fff"/>
        <path id="Path_2614" data-name="Path 2614" d="M623.11,396.442a17.447,17.447,0,0,1-3.755.355c-5.41,0-7.953-2.277-7.953-6.86,0-4.287,3.075-6.918,8.249-6.918,5.322,0,8.249,2.9,8.249,7.864v6.15c0,4.967-2.956,7.865-8.249,7.865-4.05,0-6.711-1.567-7.924-4.731-.325-.828-.088-1.212.74-1.537l2.158-.8c.828-.326,1.153-.089,1.537.768.533,1.272,1.686,1.893,3.46,1.893,2.335,0,3.488-1.154,3.488-3.43Zm0-5.795q0-3.282-3.459-3.282c-2.306,0-3.459.858-3.459,2.543,0,1.744.976,2.542,3.459,2.542a9.577,9.577,0,0,0,3.459-.473Z" transform="translate(-557.478 -383.02)" fill="#fff"/>
      </g>
    </g>
    <path id="Path_2615" data-name="Path 2615" d="M435.655,258.668l-.031-.652-.061-.634c-.011-.126-.023-.253-.043-.377l-.031-.215c-.04-.287-.079-.56-.137-.825l-.11-.541-.126-.5c-.062-.265-.14-.521-.224-.791l-.292-.868c-.04-.112-.079-.224-.122-.334a17.9,17.9,0,0,0-1.984-3.694,17.7,17.7,0,0,0-2.782-3.1l-.17-.146c-.214-.181-.415-.353-.624-.509l-.436-.332-.64-.445c-.042-.029-.086-.056-.13-.083l-.532-.333c-.1-.06-.2-.116-.3-.173l-.293-.164c-.1-.055-.2-.11-.3-.159a17.245,17.245,0,0,0-3.912-1.468,16.793,16.793,0,0,0-2.051-.364l-.129-.014c-.132-.016-.265-.03-.4-.042l-.523-.032c-.252-.018-.488-.021-.738-.023l-.294,0a20.83,20.83,0,0,0-4.085.392l-.512.112c-.057.013-.121.028-.187.041-.1.022-.2.043-.3.071l-.79.213-.145.045-.268.085c-.283.09-.55.174-.81.275l-.518.195c-.109.041-.219.088-.329.135l-.289.122c-.116.05-.234.1-.348.152l-.483.233c-.285.132-.554.279-.84.434l-.181.1-.16.088-.7.423c-.075.044-.141.089-.208.134l-.693.47c-.128.1-.276.206-.423.317l-.223.169c-.069.051-.132.1-.2.154l-.65.543-.187.171-.085.078c-.249.23-.484.448-.7.681l-.4.414c-.082.091-.175.2-.267.3l-.091.1a17.784,17.784,0,0,0-3.988,7.975,18.332,18.332,0,0,0-.4,4.509l0,.109c0,.055,0,.11.006.164l.113,1.368.069.553c.031.278.079.55.129.836l.043.246c.048.3.115.6.186.906l.036.161a22.452,22.452,0,0,0,1.393,4.091,21.979,21.979,0,0,0,2.13,3.676c.3.41.611.812.94,1.2a.275.275,0,0,1-.313.434c-2.974-1.244-9.763-2.622-18.168-.318l1.751,2.866c1.281-.2,9.043-2.082,16.063,1.1,9.2,4.173,22.918,22.54,12.384,49-3.783,8.6-7.478,22.452-8.205,30.149-1.778-.866-3.026-1.322-2.762-.655,2.011,5.09.821,10.788-.11,13.835h-3.208l-14.4,12.634h39.615L419.938,370.7h-3.5a14.488,14.488,0,0,1,.182-7.771c.14-.435-.248-.858-.676-1.019-.29-.109-.669-.28-1.105-.492a14.176,14.176,0,0,1-.383-4.993c.54-6.679,5.4-17.635,12-33.3,12.281-29.138-4.306-40.468-15.482-48.97a16.371,16.371,0,0,1-5.847-9.921,16.97,16.97,0,0,1-.253-3.148,15.088,15.088,0,0,1,1.371-6.123,14.718,14.718,0,0,1,1.6-2.7,14.915,14.915,0,0,1,2.121-2.286,14.3,14.3,0,0,1,2.56-1.763,13.555,13.555,0,0,1,5.918-1.619,12.314,12.314,0,0,1,6.007,1.255,12.985,12.985,0,0,1,2.6,1.709,13.459,13.459,0,0,1,2.133,2.3,13.669,13.669,0,0,1,1.541,2.758,12.775,12.775,0,0,1,.432,1.221,13.578,13.578,0,0,1,.023,6.773c-2.1,7.633-8.167,8.641-9.978,8.768l-.168.009c-.188.013-.377.01-.56.008H420.3c-.089,0-.177-.007-.266-.012l-.3-.019c-.052,0-.1-.009-.148-.014l-.19-.022-.23-.028-.367-.061c-.078-.011-.174-.032-.267-.053l-.175-.039c-.107-.023-.213-.048-.318-.079l-.324-.091-.362-.119c-.077-.023-.168-.059-.258-.095l-.121-.048c-.116-.045-.23-.089-.343-.144l-.106-.047c-.071-.032-.144-.065-.214-.1a10.635,10.635,0,0,1-4.606-4.594l-.033-.065-.158-.345c-.036-.071-.071-.161-.107-.252l-.053-.135c-.045-.109-.089-.217-.125-.329a9.6,9.6,0,0,1-.392-1.408,9.794,9.794,0,0,1-.189-1.47l-.006-.136c0-.077-.008-.155-.01-.231v-.368c0-.082,0-.179.008-.275l.012-.266c0-.051.007-.1.011-.144l.018-.179c.008-.086.016-.171.029-.257l.048-.329.071-.363c.01-.059.027-.131.046-.2l.038-.156a9.2,9.2,0,0,1,.459-1.377,9.007,9.007,0,0,1,1.527-2.429,8.642,8.642,0,0,1,2.2-1.791,7.92,7.92,0,0,1,2.647-.938l.155-.027c.053-.008.1-.012.137-.017l.218-.026c.063-.008.136-.014.208-.018l.342-.02.324,0a7.359,7.359,0,0,1,1.388.147,7.066,7.066,0,0,1,2.541,1.054,7.519,7.519,0,0,1,1.968,1.919,7.623,7.623,0,0,1,1.151,2.489,7.386,7.386,0,0,1,.221,1.359c.013.2.025.438.019.689,0,.072,0,.168-.009.265l0,.062c0,.085-.012.182-.022.28l-.007.056a6.677,6.677,0,0,1-.806,2.52,6.416,6.416,0,0,1-1.695,1.954,6.1,6.1,0,0,1-2.278,1.085,5.954,5.954,0,0,1-1.241.158c-.061,0-.117,0-.174,0h-.117c-.082,0-.139-.006-.195-.01l-.265-.023c-.058-.007-.116-.013-.172-.022l-.142-.025a1.652,1.652,0,0,1-.18-.036,5.14,5.14,0,0,1-2.131-1.017,5.363,5.363,0,0,1-1.483-1.869,5.429,5.429,0,0,1-.524-2.318l.016-.421c0-.048.007-.078.011-.109l0-.04a4.959,4.959,0,0,1,.1-.558,4.647,4.647,0,0,1,.4-1.063,4.334,4.334,0,0,1,.639-.907,4.141,4.141,0,0,1,.379-.372l.085-.069a1.893,1.893,0,0,1,.161-.125l.018-.014c.022-.018.047-.036.07-.052l.109-.072a4.1,4.1,0,0,1,.96-.469,4.2,4.2,0,0,1,1.042-.2l.138,0a1.636,1.636,0,0,1,.166,0h.086a.949.949,0,0,1,.116.007c.066,0,.13.011.195.019l.055.007c.048.007.082.012.117.019a1.8,1.8,0,0,1,.188.04l.194.051c.047.012.092.028.137.043.063.021.1.034.136.05a3.744,3.744,0,0,1,.411.193,3.572,3.572,0,0,1,.391.255,3.231,3.231,0,0,1,1.068,1.434c.215.972-.448,1.58-1.663,1.711a.281.281,0,0,0-.134.513,2.916,2.916,0,0,0,1.765.091,1.956,1.956,0,0,0,1.6-1.206,3.491,3.491,0,0,0-.255-2.41,5.36,5.36,0,0,0-2.045-2.1,5.476,5.476,0,0,0-.675-.321c-.045-.019-.078-.03-.11-.041l-.076-.027c-.048-.017-.1-.036-.152-.05l-.387-.1c-.063-.017-.118-.027-.171-.037l-.075-.013c-.037-.007-.073-.014-.11-.02l-.079-.01c-.1-.013-.194-.027-.292-.033a6.341,6.341,0,0,0-.785-.013,5.946,5.946,0,0,0-1.5.278,6.117,6.117,0,0,0-1.411.673l-.179.119c-.026.017-.059.042-.092.067l-.065.047c-.085.06-.158.121-.233.181l-.088.072a6.034,6.034,0,0,0-.568.546,6.52,6.52,0,0,0-.957,1.344,6.749,6.749,0,0,0-.759,2.4l-.01.086c-.006.045-.011.088-.016.132l-.03.651a7.752,7.752,0,0,0,2.851,6.063,7.475,7.475,0,0,0,3.135,1.518c.078.02.142.031.207.042l.237.042c.1.016.2.029.31.041l.2.021c.119.009.239.019.358.024l.1,0,.337,0a8.256,8.256,0,0,0,1.746-.2,8.61,8.61,0,0,0,3.246-1.506,9.184,9.184,0,0,0,2.449-2.771,9.645,9.645,0,0,0,1.2-3.631l0-.032c.017-.146.034-.293.042-.44l0-.032c.01-.151.021-.3.021-.451.01-.3,0-.61-.017-.978a10.537,10.537,0,0,0-.294-1.905,10.873,10.873,0,0,0-1.591-3.533,10.426,10.426,0,0,0-2.754-2.732,10.154,10.154,0,0,0-3.58-1.521,10.275,10.275,0,0,0-1.941-.226h-.494l-.475.023c-.076,0-.147.01-.217.018l-.337.035c-.051.006-.1.01-.153.018l-.243.037a11.055,11.055,0,0,0-3.676,1.242,11.5,11.5,0,0,0-1.645,1.09,12.138,12.138,0,0,0-1.453,1.359,12.49,12.49,0,0,0-2.177,3.392,12.926,12.926,0,0,0-.657,1.941l-.062.257c-.02.077-.037.152-.051.228l-.1.536-.072.507c-.017.114-.027.227-.037.342l-.024.254c0,.052-.009.1-.012.157l-.017.365c-.006.132-.012.266-.01.393l0,.534c0,.112.011.242.018.371l.007.128a13.618,13.618,0,0,0,.27,2,13.329,13.329,0,0,0,.56,1.951c.059.171.121.323.184.474l.056.135c.045.108.089.216.14.321l.229.486.235.444a13.937,13.937,0,0,0,1.09,1.69,13.5,13.5,0,0,0,2.869,2.821,13.9,13.9,0,0,0,1.715,1.053l.461.228c.1.046.215.1.329.145l.126.055c.155.069.307.126.46.182l.132.049c.108.041.217.082.327.116l.51.161c.135.037.29.077.446.118l.033.008c.147.041.287.069.427.1l.195.04c.113.023.226.047.34.063l.526.08c.119.013.256.028.394.041l.181.018c.051.006.1.011.155.013l.517.027c.087,0,.156.007.221.007h.188c.276,0,.54,0,.8-.018l.167-.01c.11-.006.219-.011.33-.022l.5-.053c.144-.014.278-.036.413-.058l.22-.035c.109-.018.219-.036.328-.058l.157-.033c.282-.059.546-.115.8-.189a14.034,14.034,0,0,0,1.9-.649l.464-.2c.1-.045.2-.095.3-.145l.147-.073c.22-.106.431-.226.653-.352l.237-.135c.1-.062.22-.137.339-.211l.588-.39.371-.266.355-.274a15.451,15.451,0,0,0,4.809-6.556c.043-.108.079-.208.113-.308l.106-.293c.046-.128.092-.257.134-.387l.329-1.042c.086-.274.156-.546.228-.835l.052-.2c.037-.158.071-.333.1-.507l.052-.27c.01-.05.017-.1.023-.154l.013-.093c.025-.174.047-.352.068-.53.014-.152.023-.316.032-.48l0-.038c.01-.17.019-.343.018-.507v-.544C435.667,258.928,435.661,258.8,435.655,258.668Zm-9.843,54.893a1.5,1.5,0,1,1-1.254-1.7A1.495,1.495,0,0,1,425.812,313.562Zm-3.356-12.96a2.274,2.274,0,1,1,1.906,2.59A2.275,2.275,0,0,1,422.455,300.6Z" transform="translate(0 0)" fill="#fff"/>
  </g>
</svg>
