<svg xmlns="http://www.w3.org/2000/svg" width="202.428" height="49.501" viewBox="0 0 202.428 49.501">
  <g id="sector2_logo_small" transform="translate(-1006.267 -572.424)">
    <rect id="Rectangle_176" data-name="Rectangle 176" width="48.334" height="17.991" transform="translate(1006.371 603.935)" fill="#47b8b0"/>
    <g id="Group_166" data-name="Group 166" transform="translate(1006.267 572.424)">
      <path id="Path_2518" data-name="Path 2518" d="M3104.519-13.472a8.96,8.96,0,0,0-6.83-3.133h-5.326V5.012h5.326V-11.279a4.446,4.446,0,0,1,4.386,4.543V5.012h4.888V-6.736a4.446,4.446,0,0,1,4.386-4.543V5.012h5.326V-16.605h-5.326A8.958,8.958,0,0,0,3104.519-13.472Z" transform="translate(-3000.648 22.037)" fill="#0e1032"/>
      <path id="Path_2519" data-name="Path 2519" d="M3144.938-16.605V5.012h5.326V1.879h4.7V5.012h5.326v-6.7C3160.29-12,3153.867-16.605,3144.938-16.605ZM3154.9-3.29h-4.636v-7.08C3153.147-9.243,3154.588-6.768,3154.9-3.29Z" transform="translate(-3026.699 22.037)" fill="#0e1032"/>
      <path id="Path_2520" data-name="Path 2520" d="M3190.535-.157a5.672,5.672,0,0,1-5.827-5.608,5.748,5.748,0,0,1,3.571-5.294c.658-.251,1.409-.376,4.417-.376h.47v-5.17h-.47a25.029,25.029,0,0,0-4.637.219A10.652,10.652,0,0,0,3179.382-5.8a10.794,10.794,0,0,0,11.153,10.808h5.326V-5.953h-5.326Z" transform="translate(-3043.766 22.037)" fill="#0e1032"/>
      <path id="Path_2521" data-name="Path 2521" d="M3218-1.912c0,1.348-.627,1.755-1.88,1.755V5.012c4.7,0,7.205-2.851,7.205-6.924V-16.605H3218Z" transform="translate(-3061.971 22.037)" fill="#0e1032"/>
      <rect id="Rectangle_172" data-name="Rectangle 172" width="5.326" height="21.617" transform="translate(163.665 5.432)" fill="#0e1032"/>
      <path id="Path_2522" data-name="Path 2522" d="M3259.978-16.605l-4.543,8.772v-8.772h-5.326V5.012h5.326V-2.82c3.133,0,4.543,2.036,4.543,5.169V5.012h5.326V2.349c0-3.853-1.379-7.456-4.888-8.866l5.2-10.088Z" transform="translate(-3078.811 22.037)" fill="#0e1032"/>
      <path id="Path_2523" data-name="Path 2523" d="M3298.429-.157h-8.3V-3.29h5.639V-8.3h-5.639v-3.133h8.3V-16.6H3284.8V5.012h13.628Z" transform="translate(-3096.001 22.037)" fill="#0e1032"/>
      <path id="Path_2524" data-name="Path 2524" d="M3097.583-54.437c3.07,0,4.452,2,4.452,5.067v2.61h5.22v-2.61c0-3.777-1.352-7.308-4.791-8.69l5.1-9.888h-5.528l-4.452,8.6v-8.6h-5.22V-46.76h5.22Z" transform="translate(-3092.363 73.284)" fill="#0e1032"/>
      <path id="Path_2525" data-name="Path 2525" d="M3139.776-51.827h-8.137V-54.9h5.528v-4.913h-5.528v-3.071h8.137v-5.067h-13.357V-46.76h13.357Z" transform="translate(-3109.238 73.284)" fill="#0e1032"/>
      <path id="Path_2526" data-name="Path 2526" d="M3172.632-46.76V-67.948h-5.22v3.654a13.933,13.933,0,0,0-9.979-3.654V-46.76h5.22V-61.5c3.255,1.075,4.759,3.93,4.759,8.168v6.571Z" transform="translate(-3124.604 73.284)" fill="#0e1032"/>
      <path id="Path_2527" data-name="Path 2527" d="M3207.7-57.508h-5.219v5.681a5.561,5.561,0,0,1-5.712-5.5,5.635,5.635,0,0,1,3.5-5.19c.645-.246,1.382-.368,4.33-.368h.461v-5.067h-.461a24.556,24.556,0,0,0-4.545.215,10.441,10.441,0,0,0-8.506,10.379,10.579,10.579,0,0,0,10.932,10.594h5.219Z" transform="translate(-3141.51 73.284)" fill="#0e1032"/>
      <path id="Path_2528" data-name="Path 2528" d="M3233.139-49.831h4.605v3.07h5.221v-6.571c0-10.1-6.295-14.616-15.046-14.616V-46.76h5.22Zm0-12.007c2.825,1.105,4.238,3.532,4.545,6.94h-4.545Z" transform="translate(-3159.531 73.284)" fill="#0e1032"/>
      <rect id="Rectangle_173" data-name="Rectangle 173" width="3.678" height="3.908" transform="translate(17.181)" fill="#0e1032"/>
      <rect id="Rectangle_174" data-name="Rectangle 174" width="3.678" height="3.908" transform="translate(22.347)" fill="#0e1032"/>
    </g>
    <g id="Group_167" data-name="Group 167" transform="translate(1013.224 607.551)">
      <path id="Path_2529" data-name="Path 2529" d="M3233.7,41.468a3.735,3.735,0,0,1,2.689.96,3.227,3.227,0,0,1,.988,2.37,3.319,3.319,0,0,1-.828,2.428,9,9,0,0,1-3.052,1.73,8.911,8.911,0,0,0-1,.378c-.232.116-.334.247-.334.421v.117h4.42c.451,0,.6.145.6.6v.945c0,.451-.145.6-.6.6h-6.3c-.45,0-.581-.145-.581-.6v-1.1a2.648,2.648,0,0,1,.916-2.166,5.988,5.988,0,0,1,1.875-1.076,8.009,8.009,0,0,0,1.8-.887,1.644,1.644,0,0,0,.64-1.279,1.245,1.245,0,0,0-1.323-1.265,1.608,1.608,0,0,0-1.585,1.061c-.218.451-.348.509-.756.378l-1.119-.407a.51.51,0,0,1-.364-.756A3.8,3.8,0,0,1,3233.7,41.468Z" transform="translate(-3229.706 -41.468)" fill="#fff"/>
      <path id="Path_2530" data-name="Path 2530" d="M3248.494,45.088c0-2.224,1.483-3.62,3.983-3.62s3.954,1.4,3.954,3.62v3.489c0,2.268-1.454,3.649-3.954,3.649s-3.983-1.4-3.983-3.649Zm5.583-.029c0-.931-.6-1.425-1.6-1.425-1.047,0-1.628.494-1.628,1.425v3.562c0,.93.581,1.439,1.628,1.439,1,0,1.6-.509,1.6-1.439Z" transform="translate(-3239.015 -41.468)" fill="#fff"/>
      <path id="Path_2531" data-name="Path 2531" d="M3272.066,41.9c.45,0,.6.145.6.6v9.13c0,.451-.145.6-.6.6h-1.178c-.451,0-.6-.145-.6-.6V44.807l-1.41.8a.564.564,0,0,1-.9-.233l-.509-.916c-.189-.393-.116-.567.291-.8l2.632-1.527a1.57,1.57,0,0,1,.843-.233Z" transform="translate(-3248.369 -41.682)" fill="#fff"/>
      <path id="Path_2532" data-name="Path 2532" d="M3288.023,48.068a8.583,8.583,0,0,1-1.846.174c-2.661,0-3.91-1.119-3.91-3.373,0-2.108,1.512-3.4,4.056-3.4,2.616,0,4.055,1.425,4.055,3.867v3.024c0,2.442-1.453,3.867-4.055,3.867-1.992,0-3.3-.77-3.9-2.326-.16-.407-.044-.6.363-.756l1.061-.393c.407-.16.567-.044.756.378a1.637,1.637,0,0,0,1.7.93,1.5,1.5,0,0,0,1.715-1.686Zm0-2.849q0-1.614-1.7-1.614c-1.134,0-1.7.422-1.7,1.25,0,.858.479,1.25,1.7,1.25a4.719,4.719,0,0,0,1.7-.233Z" transform="translate(-3255.75 -41.468)" fill="#fff"/>
    </g>
  </g>
</svg>
