<svg xmlns="http://www.w3.org/2000/svg" width="113.927" height="9" viewBox="0 0 113.927 9">
  <g id="Group_339" data-name="Group 339" transform="translate(0)">
    <path id="Path_2651" data-name="Path 2651" d="M488.1,161.2a3.138,3.138,0,1,1-3.122-3.153A3.127,3.127,0,0,1,488.1,161.2Zm-5.61.011a2.475,2.475,0,1,0,2.478-2.58A2.523,2.523,0,0,0,482.492,161.209Zm3.706-1.024a2.217,2.217,0,0,0-.972-.226,1.168,1.168,0,0,0-1.27,1.27,1.209,1.209,0,0,0,1.259,1.28,1.9,1.9,0,0,0,1.023-.256l.154.533a2.334,2.334,0,0,1-1.27.327,1.773,1.773,0,0,1-1.894-1.854,1.9,1.9,0,0,1,2-1.9,1.946,1.946,0,0,1,1.126.287Z" transform="translate(-481.826 -157.522)" fill="#fff"/>
    <path id="Path_2652" data-name="Path 2652" d="M501.965,158.209v2.048h3.727v.962h-3.727v3.062H500.92v-7.033h5.17v.962Z" transform="translate(-491.373 -157.123)" fill="#fff"/>
    <path id="Path_2653" data-name="Path 2653" d="M512.926,163.246a2.785,2.785,0,1,1,2.795,2.774A2.813,2.813,0,0,1,512.926,163.246Zm4.556,0a1.775,1.775,0,1,0-1.761,1.894A1.85,1.85,0,0,0,517.482,163.246Z" transform="translate(-497.376 -158.741)" fill="#fff"/>
    <path id="Path_2654" data-name="Path 2654" d="M529.529,160.481v.88a1.784,1.784,0,0,0-1.966,1.526v3.01h-1.014V160.6h1.014v1.013A2.1,2.1,0,0,1,529.529,160.481Z" transform="translate(-504.187 -158.741)" fill="#fff"/>
    <path id="Path_2655" data-name="Path 2655" d="M539.28,160.6v4.73a2.423,2.423,0,0,1-2.682,2.324,3.612,3.612,0,0,1-2.212-.706l.4-.758a2.477,2.477,0,0,0,1.659.584c1.136,0,1.822-.543,1.822-1.463v-.768a2.215,2.215,0,0,1-1.873.962,2.516,2.516,0,0,1,0-5.027,2.221,2.221,0,0,1,1.873.973v-.85Zm-1.014,2.385a1.613,1.613,0,1,0-1.617,1.638A1.562,1.562,0,0,0,538.266,162.99Z" transform="translate(-507.906 -158.741)" fill="#fff"/>
    <path id="Path_2656" data-name="Path 2656" d="M551.266,164.546l.635.655a3.188,3.188,0,0,1-2.14.819,2.716,2.716,0,0,1-2.723-2.785,2.655,2.655,0,0,1,2.641-2.755c1.617,0,2.549,1.229,2.549,3.123h-4.167a1.682,1.682,0,0,0,1.69,1.516A2.313,2.313,0,0,0,551.266,164.546Zm-3.194-1.75h3.173a1.474,1.474,0,0,0-1.526-1.413A1.657,1.657,0,0,0,548.072,162.8Z" transform="translate(-514.432 -158.741)" fill="#fff"/>
    <path id="Path_2657" data-name="Path 2657" d="M564.613,157v7.157h-1v-.921a2.147,2.147,0,0,1-1.883,1.044,2.792,2.792,0,0,1,0-5.539,2.161,2.161,0,0,1,1.883,1.035V157Zm-1,4.5a1.664,1.664,0,1,0-1.638,1.894A1.706,1.706,0,0,0,563.609,161.5Z" transform="translate(-520.557 -157)" fill="#fff"/>
    <path id="Path_2658" data-name="Path 2658" d="M584.28,161.5a2.535,2.535,0,0,1-2.436,2.775,2.148,2.148,0,0,1-1.884-1.044v.921h-1V157h1v2.775a2.162,2.162,0,0,1,1.884-1.035A2.532,2.532,0,0,1,584.28,161.5Zm-1.023,0A1.664,1.664,0,1,0,581.6,163.4,1.709,1.709,0,0,0,583.256,161.5Z" transform="translate(-530.391 -157)" fill="#fff"/>
    <path id="Path_2659" data-name="Path 2659" d="M591.516,167.638l.225-.777a1.374,1.374,0,0,0,.645.164.741.741,0,0,0,.727-.41l.266-.563-2.273-5.324h1.086l1.7,4.177,1.608-4.177h1.055l-2.334,5.774a1.8,1.8,0,0,1-1.7,1.362A2.259,2.259,0,0,1,591.516,167.638Z" transform="translate(-536.466 -158.864)" fill="#fff"/>
    <path id="Path_2660" data-name="Path 2660" d="M609.749,157.247h3.788c1.341,0,2.273.747,2.273,1.77a1.711,1.711,0,0,1-.973,1.577,1.953,1.953,0,0,1,1.3,1.792c0,1.126-1.024,1.894-2.457,1.894h-3.931Zm3.306,2.734c.409,0,.707-.225.707-.533s-.3-.531-.707-.531h-1.331v1.064Zm.3,2.631c.43,0,.737-.235.737-.563s-.307-.564-.737-.564h-1.628v1.126Z" transform="translate(-545.787 -157.123)" fill="#fff"/>
    <path id="Path_2661" data-name="Path 2661" d="M623.64,163.246a2.992,2.992,0,1,1,2.989,2.774A2.913,2.913,0,0,1,623.64,163.246Zm4.126,0a1.142,1.142,0,1,0-1.137,1.136A1.145,1.145,0,0,0,627.766,163.246Z" transform="translate(-552.733 -158.741)" fill="#fff"/>
    <path id="Path_2662" data-name="Path 2662" d="M637.243,157h1.976v7.157h-1.976Z" transform="translate(-559.534 -157)" fill="#fff"/>
    <path id="Path_2663" data-name="Path 2663" d="M648.989,157v7.157h-1.975v-.624a2.213,2.213,0,0,1-1.69.747,2.794,2.794,0,0,1,0-5.539,2.214,2.214,0,0,1,1.69.748V157Zm-1.975,4.5a1.055,1.055,0,0,0-1.065-1.126,1.132,1.132,0,1,0,0,2.263A1.058,1.058,0,0,0,647.013,161.5Z" transform="translate(-562.362 -157)" fill="#fff"/>
    <path id="Path_2664" data-name="Path 2664" d="M656.829,160.634A3.78,3.78,0,0,1,660.658,157a3.91,3.91,0,0,1,2.856,1.239l-1.464,1.281a1.774,1.774,0,0,0-1.392-.717,1.839,1.839,0,0,0,0,3.676,1.8,1.8,0,0,0,1.4-.717l1.453,1.27a3.877,3.877,0,0,1-2.856,1.249A3.788,3.788,0,0,1,656.829,160.634Z" transform="translate(-569.327 -157)" fill="#fff"/>
    <path id="Path_2665" data-name="Path 2665" d="M675.275,160.481v1.639a1.468,1.468,0,0,0-1.659,1.535V165.9h-1.975V160.6h1.975v.941A1.866,1.866,0,0,1,675.275,160.481Z" transform="translate(-576.733 -158.741)" fill="#fff"/>
    <path id="Path_2666" data-name="Path 2666" d="M683.746,164.106l1.085,1.1a3.278,3.278,0,0,1-2.181.819,2.718,2.718,0,0,1-2.877-2.785,2.661,2.661,0,0,1,2.8-2.755c1.7,0,2.7,1.2,2.7,3.236h-3.747a1.087,1.087,0,0,0,1.045.829A1.954,1.954,0,0,0,683.746,164.106Zm-2.191-1.423h1.924a.963.963,0,0,0-.911-.727A1.076,1.076,0,0,0,681.555,162.683Z" transform="translate(-580.8 -158.741)" fill="#fff"/>
    <path id="Path_2667" data-name="Path 2667" d="M691.534,165.221l.737-1.2a3.578,3.578,0,0,0,1.832.624c.369,0,.5-.092.5-.266s-.307-.287-.8-.388c-.963-.206-2.038-.441-2.038-1.69,0-1.024.83-1.823,2.211-1.823a4.106,4.106,0,0,1,2.212.7l-.665,1.209a3.16,3.16,0,0,0-1.546-.564c-.276,0-.461.144-.461.3,0,.174.235.205.768.327.962.215,2.068.533,2.068,1.782,0,1.1-.87,1.792-2.3,1.792A4.242,4.242,0,0,1,691.534,165.221Z" transform="translate(-586.68 -158.741)" fill="#fff"/>
    <path id="Path_2668" data-name="Path 2668" d="M705.862,164.146a2.12,2.12,0,0,1-1.361.543,1.714,1.714,0,0,1-1.792-1.792V160.83h-.666v-1.556h.666V157.82h1.884v1.454h1.044v1.556h-1.044v1.679a.482.482,0,0,0,.451.543.768.768,0,0,0,.481-.154Z" transform="translate(-591.935 -157.41)" fill="#fff"/>
  </g>
</svg>
