<svg xmlns="http://www.w3.org/2000/svg" width="153.404" height="431.379" viewBox="0 0 153.404 431.379">
  <path id="Path_2649" data-name="Path 2649" d="M538.625,291.152l-.187-1.934c-.034-.383-.071-.77-.132-1.15l-.095-.655c-.122-.875-.241-1.707-.417-2.514l-.336-1.649-.383-1.534c-.19-.808-.427-1.588-.682-2.412l-.889-2.646c-.122-.343-.241-.682-.373-1.018a54.555,54.555,0,0,0-6.05-11.261,53.947,53.947,0,0,0-8.482-9.453l-.519-.445c-.652-.553-1.266-1.075-1.9-1.551l-1.33-1.011-1.951-1.357c-.129-.088-.261-.17-.4-.255l-1.622-1.014c-.3-.183-.6-.353-.909-.526l-.892-.5c-.3-.166-.6-.336-.906-.485a52.558,52.558,0,0,0-11.926-4.475,51.228,51.228,0,0,0-6.253-1.11l-.394-.044c-.4-.048-.808-.092-1.211-.129l-1.6-.1c-.767-.054-1.486-.064-2.249-.071l-.9-.013a63.5,63.5,0,0,0-12.455,1.194l-1.561.343c-.173.041-.37.085-.57.126-.309.068-.614.132-.916.217l-2.409.648c-.126.037-.282.088-.441.136l-.818.258c-.862.275-1.676.529-2.47.838l-1.578.594c-.332.126-.668.268-1,.411l-.882.373c-.353.153-.712.3-1.062.465l-1.472.709c-.869.4-1.69.852-2.562,1.323l-.553.305c-.163.088-.326.176-.489.268l-2.124,1.289c-.228.136-.431.271-.635.407l-2.114,1.432c-.39.292-.841.628-1.289.967l-.678.516c-.21.156-.4.309-.6.468l-1.982,1.656c-.173.156-.373.34-.57.523l-.258.238c-.76.7-1.476,1.367-2.148,2.076l-1.225,1.262c-.251.278-.533.6-.814.923l-.278.315a54.308,54.308,0,0,0-7.58,11.285,54.856,54.856,0,0,0-4.58,13.029,55.89,55.89,0,0,0-1.228,13.748l.007.333c0,.166.007.336.017.5l.346,4.17.21,1.686c.1.848.241,1.676.393,2.548l.133.75c.146.919.349,1.815.567,2.762l.109.492a68.449,68.449,0,0,0,4.248,12.472,67.012,67.012,0,0,0,6.494,11.207c.906,1.248,1.863,2.477,2.867,3.671a.839.839,0,0,1-.953,1.323c-9.066-3.793-29.766-7.994-55.39-.97l5.337,8.737c3.905-.6,27.571-6.348,48.973,3.359,28.059,12.723,69.874,68.72,37.756,149.38-11.532,26.23-22.8,68.452-25.016,91.917-5.422-2.639-9.225-4.031-8.421-2,6.131,15.519,2.5,32.891-.336,42.181h-9.782l-43.911,38.52H510.728L490.8,634.7H480.118a44.168,44.168,0,0,1,.556-23.693c.427-1.327-.757-2.616-2.059-3.108-.886-.332-2.039-.855-3.369-1.5a43.216,43.216,0,0,1-1.167-15.224c1.645-20.365,16.449-53.764,36.582-101.54,37.441-88.837-13.127-123.38-47.2-149.3-12.652-9.721-16.724-23.95-17.826-30.248a51.729,51.729,0,0,1-.77-9.6,46,46,0,0,1,4.18-18.668,44.874,44.874,0,0,1,4.893-8.224,45.474,45.474,0,0,1,6.467-6.969,43.6,43.6,0,0,1,7.8-5.374,41.324,41.324,0,0,1,18.043-4.937,37.547,37.547,0,0,1,18.315,3.827,39.594,39.594,0,0,1,7.939,5.212,41.039,41.039,0,0,1,6.5,7.01,41.685,41.685,0,0,1,4.7,8.407,38.985,38.985,0,0,1,1.316,3.722,41.4,41.4,0,0,1,.071,20.649c-6.4,23.272-24.9,26.346-30.421,26.733l-.512.027c-.573.041-1.15.031-1.707.024l-.563,0c-.271,0-.54-.021-.811-.037l-.913-.058c-.16-.01-.305-.027-.451-.044l-.58-.068c-.234-.027-.468-.054-.7-.085l-1.12-.187c-.237-.034-.529-.1-.814-.163l-.533-.119c-.326-.071-.648-.146-.97-.241l-.987-.278-1.1-.363c-.234-.071-.512-.18-.787-.289l-.37-.146c-.353-.136-.7-.271-1.045-.438l-.322-.143c-.217-.1-.438-.2-.652-.3a32.425,32.425,0,0,1-14.043-14.006l-.1-.2-.482-1.052c-.108-.217-.217-.492-.325-.767l-.163-.41c-.136-.332-.272-.662-.38-1a29.3,29.3,0,0,1-1.195-4.292,29.915,29.915,0,0,1-.576-4.482l-.017-.414c-.013-.234-.024-.472-.03-.706l0-1.123c-.007-.251.007-.546.023-.838l.037-.811c.007-.156.02-.3.034-.438l.055-.546c.023-.261.047-.522.088-.784l.146-1,.217-1.106c.031-.18.081-.4.139-.618l.115-.475a28.068,28.068,0,0,1,1.4-4.2,27.461,27.461,0,0,1,4.655-7.407,26.356,26.356,0,0,1,6.711-5.459,24.15,24.15,0,0,1,8.072-2.86l.471-.082c.163-.024.292-.037.417-.051l.665-.078c.193-.024.414-.044.634-.054l1.042-.061.987-.007a22.445,22.445,0,0,1,4.231.448,21.541,21.541,0,0,1,7.746,3.213,22.922,22.922,0,0,1,6,5.849,23.244,23.244,0,0,1,3.509,7.59,22.518,22.518,0,0,1,.675,4.143c.041.617.075,1.337.058,2.1,0,.221-.01.512-.027.808l-.013.19c-.007.258-.037.557-.068.855l-.02.17a20.352,20.352,0,0,1-2.456,7.682,19.564,19.564,0,0,1-5.167,5.958,18.589,18.589,0,0,1-6.945,3.308,18.142,18.142,0,0,1-3.783.482c-.187,0-.357,0-.53,0l-.356,0c-.251-.007-.424-.017-.594-.031l-.808-.071c-.177-.02-.353-.041-.526-.068l-.434-.075a5.064,5.064,0,0,1-.55-.109,15.666,15.666,0,0,1-6.5-3.1,16.351,16.351,0,0,1-4.523-5.7,16.553,16.553,0,0,1-1.6-7.068l.048-1.282c.01-.146.02-.238.034-.333l.014-.122a15.145,15.145,0,0,1,.3-1.7,14.165,14.165,0,0,1,1.232-3.24,13.2,13.2,0,0,1,1.948-2.765,12.627,12.627,0,0,1,1.157-1.133l.258-.21a5.754,5.754,0,0,1,.492-.38l.054-.044c.068-.054.142-.109.214-.16l.332-.22a12.5,12.5,0,0,1,2.928-1.428,12.8,12.8,0,0,1,3.175-.618l.421-.013a4.958,4.958,0,0,1,.505,0l.261,0a2.9,2.9,0,0,1,.353.02c.2.01.4.034.594.058l.166.02c.146.02.251.038.356.058a5.416,5.416,0,0,1,.573.122l.59.156c.142.037.282.085.417.132.193.065.306.105.414.153a11.406,11.406,0,0,1,1.252.587,10.908,10.908,0,0,1,1.191.777c.448.336,2.82,2.389,3.257,4.373.655,2.962-1.368,4.818-5.069,5.215a.858.858,0,0,0-.407,1.564c1.334.8,3.912.587,5.381.278,2.694-.57,4.258-1.91,4.869-3.678.926-2.684-.109-6.1-.777-7.349a16.342,16.342,0,0,0-6.236-6.416,16.706,16.706,0,0,0-2.059-.977c-.136-.057-.238-.091-.336-.125l-.231-.081c-.146-.051-.305-.109-.465-.153l-1.181-.319c-.194-.051-.36-.082-.523-.112l-.227-.041c-.112-.02-.224-.044-.336-.061l-.241-.031c-.3-.041-.59-.081-.889-.1a19.335,19.335,0,0,0-2.392-.041,18.129,18.129,0,0,0-4.58.848,18.656,18.656,0,0,0-4.3,2.053l-.546.363c-.078.051-.18.129-.282.2l-.2.142c-.258.183-.482.37-.709.553l-.268.22a18.39,18.39,0,0,0-1.73,1.666,19.878,19.878,0,0,0-2.918,4.1,20.578,20.578,0,0,0-2.314,7.312l-.031.261c-.017.136-.034.268-.047.4l-.092,1.985a23.634,23.634,0,0,0,8.692,18.485,22.79,22.79,0,0,0,9.558,4.628c.237.061.434.095.631.129l.723.129c.3.048.621.088.947.125l.614.065c.363.027.73.058,1.093.074l.309.007c.343.007.675.01,1.028.013a25.159,25.159,0,0,0,5.323-.621,26.248,26.248,0,0,0,9.9-4.591,27.992,27.992,0,0,0,7.468-8.448,29.4,29.4,0,0,0,3.661-11.071l.01-.1c.051-.445.105-.892.129-1.34l.007-.1c.031-.461.064-.926.064-1.374.03-.926.014-1.859-.051-2.982a32.144,32.144,0,0,0-.9-5.809A33.151,33.151,0,0,0,513.4,277.15a31.787,31.787,0,0,0-8.4-8.33,30.961,30.961,0,0,0-10.915-4.638,31.339,31.339,0,0,0-5.917-.689h-1.506l-1.449.071c-.231.01-.448.031-.662.054l-1.028.105c-.156.017-.312.03-.465.054l-.74.112a33.7,33.7,0,0,0-11.207,3.787A35.042,35.042,0,0,0,466.1,271a36.981,36.981,0,0,0-4.431,4.143,38.081,38.081,0,0,0-6.637,10.341,39.419,39.419,0,0,0-2,5.917l-.19.784c-.061.234-.112.465-.156.7l-.312,1.635-.22,1.547c-.051.346-.081.692-.112,1.042l-.075.773c-.014.159-.027.319-.037.478l-.051,1.113c-.017.4-.037.811-.03,1.2l.007,1.629c.014.343.034.736.055,1.13l.02.39a41.555,41.555,0,0,0,.824,6.084,40.648,40.648,0,0,0,1.707,5.948c.18.523.37.984.56,1.445l.17.411c.136.329.271.658.428.977l.7,1.482.716,1.354a42.489,42.489,0,0,0,3.322,5.154,41.161,41.161,0,0,0,8.747,8.6,42.344,42.344,0,0,0,5.228,3.21l1.4.7c.305.139.655.292,1,.441l.383.166c.472.21.937.383,1.4.556l.4.15c.329.126.662.251,1,.353l1.554.492c.411.112.885.234,1.361.36l.1.024c.448.125.875.21,1.3.3l.594.122c.346.071.689.143,1.038.194l1.6.244c.363.041.781.085,1.2.126l.553.054c.156.017.315.034.471.041l1.578.082c.265.01.475.02.675.02l.573,0c.841,0,1.646,0,2.436-.054l.509-.031c.336-.017.668-.034,1.008-.068l1.537-.163c.438-.044.848-.109,1.259-.177l.672-.105c.332-.054.668-.108,1-.176l.479-.1c.858-.18,1.666-.349,2.453-.577a42.837,42.837,0,0,0,5.789-1.978l1.415-.624c.305-.136.607-.289.909-.441l.448-.224c.672-.323,1.314-.689,1.992-1.072l.723-.41c.312-.19.672-.418,1.035-.645l1.791-1.188,1.13-.811,1.082-.835a47.1,47.1,0,0,0,14.661-19.988c.132-.329.241-.634.346-.94l.322-.892c.139-.39.282-.784.407-1.181l1-3.176c.261-.835.475-1.666.7-2.545l.16-.624c.112-.482.217-1.015.319-1.547l.159-.824c.031-.152.051-.312.071-.468l.041-.285c.075-.529.143-1.072.207-1.615.044-.465.071-.964.1-1.462l.007-.115c.03-.519.057-1.045.054-1.547l0-1.659ZM508.71,460.5a4.559,4.559,0,1,1-3.824-5.191A4.558,4.558,0,0,1,508.71,460.5Zm-10.233-39.514a6.932,6.932,0,1,1,5.812,7.9A6.936,6.936,0,0,1,498.476,420.986Z" transform="translate(-385.35 -241.843)" fill="#0e1032" opacity="0.11"/>
</svg>
