<?xml version="1.0" standalone="no"?>
<!DOCTYPE svg PUBLIC "-//W3C//DTD SVG 20010904//EN"
 "http://www.w3.org/TR/2001/REC-SVG-20010904/DTD/svg10.dtd">
<svg version="1.0" xmlns="http://www.w3.org/2000/svg"
 width="720.000000pt" height="720.000000pt" viewBox="0 0 720.000000 720.000000"
 preserveAspectRatio="xMidYMid meet">
<metadata>
Created by potrace 1.11, written by Peter Selinger 2001-2013
</metadata>
<g transform="translate(0.000000,720.000000) scale(0.100000,-0.100000)"
fill="#000000" stroke="none">
<path d="M3775 7175 c-124 -25 -160 -37 -263 -89 -88 -43 -118 -63 -201 -135
-153 -132 -271 -352 -298 -556 -14 -104 -4 -325 17 -380 5 -14 8 -25 5 -25 -7
0 52 -165 79 -218 29 -57 79 -136 120 -191 14 -19 23 -38 19 -42 -5 -4 -40 3
-78 16 -110 36 -245 53 -403 53 -79 -1 -167 -5 -195 -9 -29 -5 -67 -11 -85
-14 -19 -3 -65 -12 -103 -21 -68 -15 -70 -16 -56 -37 8 -12 29 -46 47 -75 22
-37 37 -51 49 -48 9 2 36 8 61 11 25 4 54 9 65 12 43 9 294 10 365 1 283 -34
512 -169 719 -423 209 -255 338 -561 396 -940 11 -67 14 -426 5 -490 -4 -33
-11 -80 -14 -105 -21 -179 -91 -423 -195 -682 -102 -254 -235 -667 -276 -856
-2 -9 -16 -69 -30 -132 -15 -63 -29 -126 -31 -140 -2 -14 -7 -36 -9 -50 -3
-14 -7 -34 -9 -45 -7 -35 -32 -205 -35 -237 -1 -7 -41 1 -56 12 -19 14 -75 29
-79 22 -2 -4 7 -50 20 -102 27 -100 35 -268 20 -375 -10 -69 -45 -227 -51
-234 -3 -3 -41 -5 -85 -6 -85 -1 -77 3 -170 -80 -25 -22 -79 -69 -120 -105
-41 -36 -81 -72 -90 -80 -9 -8 -45 -40 -80 -70 -36 -30 -74 -64 -86 -75 -12
-11 -70 -63 -130 -115 -60 -52 -115 -101 -122 -107 -11 -11 185 -13 993 -13
554 0 1005 3 1003 8 -11 25 -142 279 -148 287 -4 6 -42 80 -85 165 -43 85 -84
162 -91 170 -10 12 -32 15 -94 14 -73 -2 -81 0 -92 19 -14 26 -17 255 -4 307
4 19 9 51 10 70 1 32 -3 37 -41 55 -41 20 -45 26 -58 95 -6 31 -7 176 -1 210
2 14 7 48 11 75 11 77 68 276 120 420 45 126 160 425 175 455 5 8 28 65 53
125 49 120 201 482 223 530 98 219 201 555 221 725 3 25 9 64 13 88 10 57 10
349 0 404 -5 24 -14 72 -21 108 -37 196 -131 403 -263 580 -58 78 -89 112
-196 221 -81 82 -128 124 -265 238 -12 10 -52 41 -90 70 -75 57 -114 87 -178
137 -69 55 -155 165 -202 259 -197 395 -59 861 310 1049 262 133 567 87 765
-114 130 -132 190 -275 190 -453 0 -286 -167 -526 -415 -597 -81 -23 -234 -26
-303 -5 -99 30 -211 120 -270 216 -23 38 -65 149 -56 149 3 0 0 9 -6 20 -12
23 -16 215 -5 252 35 117 123 221 233 275 72 36 81 38 167 37 68 0 104 -6 147
-23 81 -31 158 -105 199 -189 31 -61 33 -75 34 -162 0 -84 -3 -101 -28 -152
-33 -68 -110 -140 -170 -160 -60 -21 -157 -22 -201 -4 -158 66 -220 272 -121
402 36 47 94 75 168 79 75 4 116 -19 147 -79 24 -50 14 -71 -48 -97 -36 -16
-43 -22 -32 -29 40 -25 139 -4 160 34 41 77 3 171 -95 234 -56 37 -177 41
-251 9 -152 -66 -227 -211 -196 -378 16 -82 48 -144 106 -203 70 -72 150 -108
236 -109 123 0 193 20 287 84 137 94 200 226 190 404 -5 100 -26 175 -72 251
-104 174 -268 264 -480 264 -234 0 -463 -182 -537 -425 -22 -73 -29 -223 -15
-315 38 -243 214 -457 442 -539 61 -22 90 -25 230 -29 l161 -4 84 32 c298 114
485 371 510 702 13 160 5 239 -32 343 -99 280 -321 489 -602 568 -120 34 -303
35 -461 2z m601 -2883 c60 -32 73 -121 26 -173 -24 -26 -37 -33 -76 -35 -42
-2 -50 1 -81 32 -27 26 -35 43 -35 70 0 92 87 148 166 106z m-21 -677 c14 -13
25 -36 25 -50 0 -34 -42 -75 -76 -75 -68 0 -100 88 -48 129 35 28 69 26 99 -4z"/>
</g>
</svg>
