<svg id="Layer_1" data-name="Layer 1" xmlns="http://www.w3.org/2000/svg" viewBox="0 0 374.69 72.88"><defs><style>.cls-1,.cls-2{fill:#0e1032;}.cls-2{isolation:isolate;font-size:20.06px;font-family:Ubuntu-Bold, Ubuntu;font-weight:700;}.cls-3{letter-spacing:-0.01em;}.cls-4{letter-spacing:-0.02em;}.cls-5{letter-spacing:-0.02em;}</style></defs><title>button_</title><path class="cls-1" d="M293,6.44a30,30,0,0,1,0,60H81.69a30,30,0,0,1,0-60H293m0-2H81.69a32.09,32.09,0,0,0-32,32h0a32.09,32.09,0,0,0,32,32H293a32.09,32.09,0,0,0,32-32h0a32.09,32.09,0,0,0-32-32Z"/><text class="cls-2" transform="translate(104.35 42.71)">do<tspan class="cls-3" x="24.29" y="0">r</tspan><tspan x="32.55" y="0">ë</tspan><tspan class="cls-4" x="44.26" y="0">z</tspan><tspan x="53.99" y="0">o artin </tspan><tspan class="cls-5" x="121.86" y="0">t</tspan><tspan x="130.36" y="0">ënd</tspan></text></svg>