<svg id="Layer_1" data-name="Layer 1" xmlns="http://www.w3.org/2000/svg" viewBox="0 0 374.69 72.88"><defs><style>.cls-1,.cls-2{fill:#fff;}.cls-2{font-size:20.06px;font-family:Ubuntu-Bold, Ubuntu;font-weight:700;}.cls-3{letter-spacing:-0.01em;}.cls-4{letter-spacing:-0.02em;}</style></defs><title>buttons</title><path class="cls-1" d="M221.12,6.44a30,30,0,1,1,0,60H153.57a30,30,0,0,1,0-60h67.55m0-2H153.57a32.09,32.09,0,0,0-32,32h0a32.09,32.09,0,0,0,32,32h67.55a32.09,32.09,0,0,0,32-32h0a32.09,32.09,0,0,0-32-32Z"/><text class="cls-2" transform="translate(165.54 42.71)"><tspan class="cls-3">v</tspan><tspan x="10.75" y="0">o</tspan><tspan class="cls-4" x="22.92" y="0">t</tspan><tspan x="31.43" y="0">o</tspan></text></svg>