<svg id="Layer_1" data-name="Layer 1" xmlns="http://www.w3.org/2000/svg" viewBox="0 0 42.52 42.52"><defs><style>.cls-1{fill:#fff;}.cls-2{fill:none;}</style></defs><title>social_</title><g id="right-6"><path class="cls-1" d="M21.26,5A16.25,16.25,0,1,1,5,21.26,16.27,16.27,0,0,1,21.26,5m0-2A18.25,18.25,0,1,0,39.51,21.26,18.25,18.25,0,0,0,21.26,3Z"/></g><path class="cls-2" d="M30.52,16.72A4.72,4.72,0,0,0,25.79,12H16.72A4.72,4.72,0,0,0,12,16.72V25.8a4.72,4.72,0,0,0,4.72,4.72H25.8a4.72,4.72,0,0,0,4.72-4.72V16.72ZM21.3,27a5.64,5.64,0,0,1,0-11.27h0A5.64,5.64,0,0,1,21.3,27Zm6-10.31a1.34,1.34,0,1,1,0-2.68h0a1.34,1.34,0,0,1,0,2.68Z"/><path class="cls-2" d="M32.67,25.8a6.88,6.88,0,0,1-6.88,6.87H16.72A6.88,6.88,0,0,1,9.85,25.8V16.72a6.88,6.88,0,0,1,6.87-6.87H25.8a6.88,6.88,0,0,1,6.87,6.87Z"/><path class="cls-2" d="M21.3,17.8a3.61,3.61,0,1,0,3.61,3.61A3.61,3.61,0,0,0,21.3,17.8Z"/><polygon class="cls-1" points="21.3 25.02 21.3 25.02 21.3 25.02 21.3 25.02"/><polygon class="cls-1" points="21.3 15.77 21.3 15.77 21.3 15.77 21.3 15.77"/><path class="cls-1" d="M25.8,9.85H16.72a6.88,6.88,0,0,0-6.87,6.87V25.8a6.88,6.88,0,0,0,6.87,6.87h9.07a6.88,6.88,0,0,0,6.88-6.87V16.72A6.88,6.88,0,0,0,25.8,9.85Zm0,20.67H16.72A4.72,4.72,0,0,1,12,25.8V16.72A4.72,4.72,0,0,1,16.72,12h9.07a4.72,4.72,0,0,1,4.73,4.72h0V25.8A4.72,4.72,0,0,1,25.8,30.52Z"/><path class="cls-1" d="M27.27,14.05h0a1.34,1.34,0,1,0,1.35,1.34A1.34,1.34,0,0,0,27.26,14.05Z"/><path class="cls-1" d="M21.3,15.77a5.64,5.64,0,1,0,5.63,5.63A5.63,5.63,0,0,0,21.3,15.77Zm0,9.25h0a3.61,3.61,0,1,1,3.61-3.61A3.61,3.61,0,0,1,21.3,25Z"/></svg>