<svg id="Layer_1" data-name="Layer 1" xmlns="http://www.w3.org/2000/svg" viewBox="0 0 42.52 42.52"><defs><style>.cls-1{fill:#0e1032;}.cls-2{fill:#fff;}</style></defs><title>social_</title><g id="right-6"><circle class="cls-1" cx="21.26" cy="22.26" r="18.25"/></g><polygon class="cls-1" points="21.26 21.26 21.26 21.26 21.26 21.26 21.26 21.26"/><polygon class="cls-1" points="21.26 21.26 21.26 21.26 21.26 21.26 21.26 21.26"/><g id="Group_273" data-name="Group 273"><path id="Path_2647" data-name="Path 2647" class="cls-2" d="M32,19.41a4.69,4.69,0,0,0-4.68-4.69H15.18a4.69,4.69,0,0,0-4.68,4.69h0v5.7a4.69,4.69,0,0,0,4.68,4.69H27.34A4.69,4.69,0,0,0,32,25.11h0Zm-7.67,3.14-4.84,2.66a.28.28,0,0,1-.41-.28V19.47c0-.24.2-.4.41-.28L24.39,22a.32.32,0,0,1,.09.45.6.6,0,0,1-.12.11Z"/></g></svg>