<svg id="Layer_1" data-name="Layer 1" xmlns="http://www.w3.org/2000/svg" viewBox="0 0 42.52 42.52"><defs><style>.cls-1{fill:#fff;}.cls-2{fill:none;}.cls-3{fill:#0e1032;}</style></defs><title>social_</title><g id="right-6"><circle class="cls-1" cx="21.26" cy="22.26" r="18.25"/></g><path class="cls-2" d="M30.52,17.72A4.72,4.72,0,0,0,25.79,13H16.72A4.72,4.72,0,0,0,12,17.72V26.8a4.72,4.72,0,0,0,4.72,4.72H25.8a4.72,4.72,0,0,0,4.72-4.72V17.72ZM21.3,28a5.64,5.64,0,0,1,0-11.27h0A5.64,5.64,0,0,1,21.3,28Zm6-10.31a1.34,1.34,0,1,1,0-2.68h0a1.34,1.34,0,0,1,0,2.68Z"/><path class="cls-2" d="M32.67,26.8a6.88,6.88,0,0,1-6.88,6.87H16.72A6.88,6.88,0,0,1,9.85,26.8V17.72a6.88,6.88,0,0,1,6.87-6.87H25.8a6.88,6.88,0,0,1,6.87,6.87Z"/><path class="cls-2" d="M21.3,18.8a3.61,3.61,0,1,0,3.61,3.61A3.61,3.61,0,0,0,21.3,18.8Z"/><polygon class="cls-1" points="21.3 26.02 21.3 26.02 21.3 26.02 21.3 26.02"/><polygon class="cls-1" points="21.3 16.77 21.3 16.77 21.3 16.77 21.3 16.77"/><path class="cls-3" d="M25.8,10.85H16.72a6.88,6.88,0,0,0-6.87,6.87V26.8a6.88,6.88,0,0,0,6.87,6.87h9.07a6.88,6.88,0,0,0,6.88-6.87V17.72A6.88,6.88,0,0,0,25.8,10.85Zm0,20.67H16.72A4.72,4.72,0,0,1,12,26.8V17.72A4.72,4.72,0,0,1,16.72,13h9.07a4.72,4.72,0,0,1,4.73,4.72h0V26.8A4.72,4.72,0,0,1,25.8,31.52Z"/><path class="cls-3" d="M27.27,15.05h0a1.34,1.34,0,1,0,1.35,1.34A1.34,1.34,0,0,0,27.26,15.05Z"/><path class="cls-3" d="M21.3,16.77a5.64,5.64,0,1,0,5.63,5.63A5.63,5.63,0,0,0,21.3,16.77Zm0,9.25h0a3.61,3.61,0,1,1,3.61-3.61A3.61,3.61,0,0,1,21.3,26Z"/></svg>