<svg id="Layer_1" data-name="Layer 1" xmlns="http://www.w3.org/2000/svg" viewBox="0 0 42.52 42.52"><defs><style>.cls-1,.cls-2{fill:#0e1032;}.cls-1{fill-rule:evenodd;}</style></defs><title>social_</title><path id="Path_2643" data-name="Path 2643" class="cls-1" d="M18.4,21.35V31.92a.27.27,0,0,0,.27.28H22.6a.28.28,0,0,0,.28-.28h0V21.17h2.84a.27.27,0,0,0,.28-.25l.27-3.24a.26.26,0,0,0-.25-.29H22.88V15.09a1,1,0,0,1,1-1h2.2a.27.27,0,0,0,.27-.27h0V10.6a.27.27,0,0,0-.27-.28H22.34a4,4,0,0,0-3.95,3.94v3.13h-2a.27.27,0,0,0-.27.27h0V20.9a.28.28,0,0,0,.27.28h2Z"/><g id="right-6"><path class="cls-2" d="M21.26,5A16.25,16.25,0,1,1,5,21.26,16.27,16.27,0,0,1,21.26,5m0-2A18.25,18.25,0,1,0,39.51,21.26,18.25,18.25,0,0,0,21.26,3Z"/></g></svg>