<svg id="Layer_1" data-name="Layer 1" xmlns="http://www.w3.org/2000/svg" viewBox="0 0 42.52 42.52"><defs><style>.cls-1{fill:#fff;}.cls-2{fill:#0e1032;fill-rule:evenodd;}</style></defs><title>social_</title><g id="right-6"><circle class="cls-1" cx="21.26" cy="22.26" r="18.25"/></g><g id="Path_2643" data-name="Path 2643"><path class="cls-2" d="M18.4,22.35V32.92a.27.27,0,0,0,.27.28H22.6a.28.28,0,0,0,.28-.28h0V22.17h2.84a.27.27,0,0,0,.28-.25l.27-3.24a.26.26,0,0,0-.25-.29H22.88V16.09a1,1,0,0,1,1-1h2.2a.27.27,0,0,0,.27-.27h0V11.6a.27.27,0,0,0-.27-.28H22.34a4,4,0,0,0-3.95,3.94v3.13h-2a.27.27,0,0,0-.27.27h0V21.9a.28.28,0,0,0,.27.28h2Z"/></g></svg>