<svg id="Layer_1" data-name="Layer 1" xmlns="http://www.w3.org/2000/svg" viewBox="0 0 42.52 42.52"><defs><style>.cls-1{fill:#0e1032;}</style></defs><title>social_</title><g id="right-6"><path class="cls-1" d="M21.26,5A16.25,16.25,0,1,1,5,21.26,16.27,16.27,0,0,1,21.26,5m0-2A18.25,18.25,0,1,0,39.51,21.26,18.25,18.25,0,0,0,21.26,3Z"/></g><polygon class="cls-1" points="21.26 21.26 21.26 21.26 21.26 21.26 21.26 21.26"/><polygon class="cls-1" points="21.26 21.26 21.26 21.26 21.26 21.26 21.26 21.26"/><g id="Group_273" data-name="Group 273"><path id="Path_2647" data-name="Path 2647" class="cls-1" d="M32,18.41a4.69,4.69,0,0,0-4.68-4.69H15.18a4.69,4.69,0,0,0-4.68,4.69h0v5.7a4.69,4.69,0,0,0,4.68,4.69H27.34A4.69,4.69,0,0,0,32,24.11h0Zm-7.67,3.14-4.84,2.66a.28.28,0,0,1-.41-.28V18.47c0-.24.2-.4.41-.28L24.39,21a.32.32,0,0,1,.09.45.6.6,0,0,1-.12.11Z"/></g></svg>